<?xml version="1.0" encoding="UTF-8" standalone="no"?>
<!-- Created with Inkscape (http://www.inkscape.org/) -->

<svg
   xmlns:dc="http://purl.org/dc/elements/1.1/"
   xmlns:cc="http://creativecommons.org/ns#"
   xmlns:rdf="http://www.w3.org/1999/02/22-rdf-syntax-ns#"
   xmlns:svg="http://www.w3.org/2000/svg"
   xmlns="http://www.w3.org/2000/svg"
   xmlns:sodipodi="http://sodipodi.sourceforge.net/DTD/sodipodi-0.dtd"
   xmlns:inkscape="http://www.inkscape.org/namespaces/inkscape"
   version="1.1"
   id="svg76215"
   xml:space="preserve"
   width="800"
   height="800"
   viewBox="0 0 800 800"
   sodipodi:docname="tuffet-design.svg"
   inkscape:version="0.92.4 (5da689c313, 2019-01-14)"><metadata
     id="metadata76221"><rdf:RDF><cc:Work
         rdf:about=""><dc:format>image/svg+xml</dc:format><dc:type
           rdf:resource="http://purl.org/dc/dcmitype/StillImage" /><dc:title></dc:title></cc:Work></rdf:RDF></metadata><defs
     id="defs76219"><clipPath
       clipPathUnits="userSpaceOnUse"
       id="clipPath76231"><path
         d="M 0,600 H 600 V 0 H 0 Z"
         id="path76229"
         inkscape:connector-curvature="0" /></clipPath></defs><sodipodi:namedview
     pagecolor="#ffffff"
     bordercolor="#666666"
     borderopacity="1"
     objecttolerance="10"
     gridtolerance="10"
     guidetolerance="10"
     inkscape:pageopacity="0"
     inkscape:pageshadow="2"
     inkscape:window-width="797"
     inkscape:window-height="480"
     id="namedview76217"
     showgrid="false"
     inkscape:zoom="0.295"
     inkscape:cx="400"
     inkscape:cy="400"
     inkscape:window-x="0"
     inkscape:window-y="0"
     inkscape:window-maximized="0"
     inkscape:current-layer="g76223" /><g
     id="g76223"
     inkscape:groupmode="layer"
     inkscape:label="tuffet-design"
     transform="matrix(1.3333333,0,0,-1.3333333,0,800)"><g
       id="g76225"><g
         id="g76227"
         clip-path="url(#clipPath76231)"><path
           d="M 0.618,-0.45 H 601 V 599.932 H 0.618 Z"
           style="fill:#000000;fill-opacity:1;fill-rule:evenodd;stroke:none"
           id="path76233"
           inkscape:connector-curvature="0" /><path
           d="M 314.751,238.91 C 358.543,222.791 397.29,190.525 412.51,83.015 406.574,192.916 367.72,234.938 314.751,238.91 m 3.044,54.186 c 2.051,56.84 8.909,109.099 38.176,140.001 C 321.168,415.3 312.425,361.509 317.795,293.096 m 10.486,-42.431 c 45.072,25.267 96.777,16.062 154.009,-58.745 -63.66,68.187 -110.628,70.529 -154.009,58.745 m 2.781,16.132 c 52.204,38.386 108.723,64.842 185.335,35.69 C 447.521,342.199 385.3,319.7 331.062,266.797 m -3.673,12.969 c 43.416,53.155 91.082,93.358 158.556,73.178 -61.256,33.651 -114.023,-2.995 -158.556,-73.178 m -7.632,9.454 c 14.676,92.546 51.017,153.61 124.24,144.888 C 370.219,426.07 340.285,363.494 319.757,289.22 M 302.854,244.339 C 259.063,215.862 220.316,172.664 205.095,60.86 c 5.936,111.576 44.791,164.557 97.759,183.479 m -3.044,55.402 c -2.051,58.553 -8.909,116.537 -38.176,171.871 34.803,-46.849 43.547,-107.94 38.176,-171.871 m -10.484,-43.648 c -54.24,14.892 -116.461,-6.213 -185.336,-94.192 76.612,82.842 133.129,95.994 185.336,94.192 m -2.782,16.132 c -52.205,34.266 -108.724,56.261 -185.336,21.061 68.876,45.15 131.097,27.561 185.336,-21.061 m 3.674,12.969 c -43.416,65.521 -91.082,119.302 -158.557,118.341 61.256,16.204 114.023,-35.474 158.557,-118.341 m 7.631,9.453 C 283.171,391.932 246.833,464.729 173.61,479.646 247.386,447.789 277.321,375.549 297.849,294.647"
           style="fill:#2d4515;fill-opacity:1;fill-rule:evenodd;stroke:none"
           id="path76235"
           inkscape:connector-curvature="0" /><path
           d="m 304.91,298.289 c -6.446,99.387 -35.092,158.377 -102.758,130.568 66.908,9.289 89.579,-52.965 102.758,-130.568 m -5.684,-19.301 c -9.72,89.998 -88.897,115.905 -134.795,33.032 72.431,71.113 114.921,25.371 134.795,-33.032 m -1.001,-9.14 c -43.501,22.341 -90.781,29.402 -155.667,-34.76 58.5,72.998 110.632,72.739 155.667,34.76 m 13.264,-15.815 c -53.977,23.605 -104.03,9.027 -139.354,-77.595 43.959,79.965 91.295,86.643 139.354,77.595 m -7.181,95.324 c -5.438,80.902 -21.9,153.141 -89.735,184.999 70.442,-14.918 93.203,-87.715 89.735,-184.999 m 6.157,-1.726 c 5.437,78.458 21.898,143.298 89.734,144.664 -70.44,16.744 -93.203,-45.821 -89.734,-144.664 m 16.177,-49.342 c 17.024,71.14 46.309,122.278 132.74,80.181 -87.409,60.988 -124.414,16.046 -132.74,-80.181 m 13.025,-4.096 c 10.43,89.999 95.378,115.906 144.623,33.033 -77.712,71.113 -123.301,25.371 -144.623,-33.033 m -21.708,-38.875 c 51.125,22.343 106.69,29.404 182.947,-34.758 -68.751,72.998 -130.02,72.739 -182.947,34.758 m 2.104,-1.285 c 53.977,9.675 104.031,-17.82 139.353,-113.555 -43.96,91.308 -91.294,110.202 -139.353,113.555"
           style="fill:#578a24;fill-opacity:1;fill-rule:evenodd;stroke:none"
           id="path76237"
           inkscape:connector-curvature="0" /><path
           d="m 323.045,272.594 c 4.085,62.984 22.239,100.367 65.12,82.744 -42.4,5.887 -56.768,-33.566 -65.12,-82.744 m 3.602,-12.231 c 6.159,57.033 56.335,73.451 85.424,20.932 -45.901,45.066 -72.83,16.078 -85.424,-20.932 m 0.636,-5.796 c 27.567,14.162 57.529,18.635 98.65,-22.027 -37.075,46.262 -70.112,46.099 -98.65,22.027 m -8.407,-10.02 c 34.207,14.96 65.927,5.719 88.312,-49.175 -27.857,50.677 -57.857,54.909 -88.312,49.175 m 4.549,60.409 c 3.448,51.27 13.879,97.05 56.868,117.239 -44.639,-9.454 -59.064,-55.587 -56.868,-117.239 m -3.9,-1.093 c -3.445,49.72 -13.879,90.812 -56.867,91.678 44.641,10.61 59.066,-29.04 56.867,-91.678 m -10.253,-31.269 c -10.788,45.082 -29.347,77.491 -84.12,50.811 55.393,38.651 78.845,10.17 84.12,-50.811 m -8.253,-2.595 c -6.61,57.033 -60.444,73.451 -91.652,20.933 49.248,45.066 78.139,16.077 91.652,-20.933 m 13.757,-24.636 c -32.4,14.158 -67.613,18.632 -115.939,-22.029 43.571,46.26 82.397,46.098 115.939,22.029 m -1.335,-0.816 c -34.206,6.131 -65.926,-11.292 -88.312,-71.964 27.859,57.867 57.857,69.839 88.312,71.964"
           style="fill:#2a4212;fill-opacity:1;fill-rule:evenodd;stroke:none"
           id="path76239"
           inkscape:connector-curvature="0" /><path
           d="m 302.847,253.286 c -37.671,-13.864 -70.999,-41.62 -84.091,-134.095 5.106,94.532 38.528,130.678 84.091,134.095 m -2.619,46.61 c -1.765,48.893 -7.665,93.844 -32.839,120.424 29.937,-15.307 37.458,-61.577 32.839,-120.424 m -9.02,-36.498 c -38.769,21.733 -83.246,13.816 -132.477,-50.532 54.761,58.655 95.161,60.669 132.477,50.532 m -2.392,13.875 c -44.906,33.02 -93.522,55.777 -159.42,30.701 59.244,34.159 112.765,14.806 159.42,-30.701 m 3.16,11.156 c -37.346,45.723 -78.347,80.305 -136.387,62.946 52.689,28.947 98.08,-2.576 136.387,-62.946 m 6.564,8.134 c -12.625,79.604 -43.883,132.129 -106.867,124.629 63.461,-6.915 89.21,-60.741 106.867,-124.629 m 14.537,-38.608 c 37.671,-24.494 70.999,-61.651 84.092,-157.824 -5.106,95.974 -38.527,141.55 -84.092,157.824 m 2.621,47.657 c 1.762,50.366 7.663,100.242 32.837,147.838 C 318.6,413.152 311.077,360.603 315.698,305.612 m 9.018,-37.546 c 46.655,12.811 100.176,-5.342 159.421,-81.02 -65.899,71.257 -114.514,82.569 -159.421,81.02 m 2.393,13.876 c 44.905,29.476 93.52,48.395 159.42,18.118 -59.245,38.836 -112.764,23.706 -159.42,-18.118 m -3.161,11.158 c 37.345,56.359 78.347,102.619 136.387,101.793 -52.69,13.939 -98.079,-30.515 -136.387,-101.793 m -6.563,8.13 C 330.01,384.913 361.267,447.529 424.251,460.361 360.792,432.958 335.042,370.819 317.385,301.23"
           style="fill:#4d7a20;fill-opacity:1;fill-rule:evenodd;stroke:none"
           id="path76241"
           inkscape:connector-curvature="0" /></g></g></g></svg>