<?xml version="1.0" encoding="UTF-8" standalone="no"?>
<!-- Generator: Adobe Illustrator 24.3.0, SVG Export Plug-In . SVG Version: 6.00 Build 0)  -->

<svg
   xmlns:dc="http://purl.org/dc/elements/1.1/"
   xmlns:cc="http://creativecommons.org/ns#"
   xmlns:rdf="http://www.w3.org/1999/02/22-rdf-syntax-ns#"
   xmlns:svg="http://www.w3.org/2000/svg"
   xmlns="http://www.w3.org/2000/svg"
   xmlns:sodipodi="http://sodipodi.sourceforge.net/DTD/sodipodi-0.dtd"
   xmlns:inkscape="http://www.inkscape.org/namespaces/inkscape"
   version="1.1"
   id="svg897"
   x="0px"
   y="0px"
   viewBox="0 0 684.99999 834.99999"
   xml:space="preserve"
   inkscape:version="0.91 r13725"
   sodipodi:docname="cactus-withheart.svg"
   width="685"
   height="835"><metadata
     id="metadata7762"><rdf:RDF><cc:Work
         rdf:about=""><dc:format>image/svg+xml</dc:format><dc:type
           rdf:resource="http://purl.org/dc/dcmitype/StillImage" /><dc:title></dc:title><dc:description>colour remix by j4p4n</dc:description><cc:license
           rdf:resource="http://creativecommons.org/publicdomain/zero/1.0/" /></cc:Work><cc:License
         rdf:about="http://creativecommons.org/publicdomain/zero/1.0/"><cc:permits
           rdf:resource="http://creativecommons.org/ns#Reproduction" /><cc:permits
           rdf:resource="http://creativecommons.org/ns#Distribution" /><cc:permits
           rdf:resource="http://creativecommons.org/ns#DerivativeWorks" /></cc:License></rdf:RDF></metadata><defs
     id="defs7760" /><style
     type="text/css"
     id="style7754">
	.st0{fill:#231F20;}
</style><sodipodi:namedview
     bordercolor="#666666"
     borderopacity="1.0"
     id="base"
     inkscape:current-layer="layer1"
     inkscape:cx="376.5114"
     inkscape:cy="415.08086"
     inkscape:document-rotation="0"
     inkscape:document-units="mm"
     inkscape:pageopacity="0.0"
     inkscape:pageshadow="2"
     inkscape:window-height="1035"
     inkscape:window-maximized="1"
     inkscape:window-width="1916"
     inkscape:window-x="4"
     inkscape:window-y="1"
     inkscape:zoom="0.94411483"
     pagecolor="#ffffff"
     showgrid="false"
     fit-margin-top="0"
     fit-margin-left="0"
     fit-margin-right="0"
     fit-margin-bottom="0" /><g
     id="layer1"
     transform="translate(213.39302,261.62717)"
     inkscape:groupmode="layer"
     inkscape:label="Layer 1"><g
       id="g8314"
       transform="translate(4,-4)"><g
         style="fill:#89a02c"
         transform="matrix(7,0,0,7,-740.82249,-963.67432)"
         id="g1554"><path
           id="path1476"
           transform="matrix(0.14285714,0,0,0.14285714,116.57893,152.22558)"
           d="m 26.748047,-352.2793 c -25.2000001,0 -37.100391,22.4 -43.400391,59.5 l -30.800781,2.09961 27.300781,30.80078 c -1.4,18.2 -2.799219,38.49922 -4.199218,60.19922 l -18.900391,9.80078 18.199219,4.19922 c -0.7,11.2 -1.398828,23.1 -2.798828,35 l -33.601563,23.10157 32.201172,-2.80079 c -1.4,17.5 -3.500781,34.999223 -6.300781,53.199222 l -15.400391,20.300782 11.900391,3.5 c -2.8,15.4 -6.3,30.799219 -10.5,46.1992185 -4.2,16.1 -19.6,23.8011715 -38.5,21.7011715 l -13.298826,-16.8007809 -19.60156,4.9003907 c -8.40001,-5.6000001 -16.80001,-11.9000001 -24.5,-20.9999998 -8.40001,-9.8 -15.39883,-21.000391 -20.29883,-32.900391 l 37.09961,-25.900391 -44.80078,3.5 c -5.60001,-17.5 -9.80001,-35.699222 -14,-53.199222 l 36.40039,-28.69921 -43.40039,2.0996 c -9.10001,-30.1 -23.09922,-55.29961 -53.19922,-65.0996 -3.5,23.8 -6.30039,47.59843 -8.40039,71.39843 l -30.09961,14.70117 28,14 c -1.4,21.700004 -2.10078,43.400395 -2.80078,64.400395 l -25.89844,14.699219 25.19922,15.40039 c 0,19.6000004 0.70039,38.499219 1.40039,56.699219 l -24.5,23.099609 27.29883,17.5 c 0.69999,10.5 2.10078,21.000782 2.80078,30.800778 l -18.90039,21.69922 24.5,17.5 c 0.7,3.5 1.40039,7 1.40039,10.5 4.2,24.5 20.30039,36.40156 39.90039,44.10157 l 2.09961,23.0996 46.19922,-3.5 21,30.09961 39.201167,-27.30078 c 21,0.7 39.199219,-0.69922 39.199219,-0.69922 0,0 4.899609,20.29961 12.599609,51.09961 l -16.099609,23.09961 23.800781,6.30078 c 2.1,7.7 4.198828,15.40078 6.298828,23.80079 l -11.199219,29.39843 21,2.80078 c 2.8,8.4 4.899219,16.79922 7.699219,25.19922 l -8.398437,28 18.898437,3.5 c 3.5,11.2 7.7011719,22.40039 11.2011719,32.90039 7.0000001,18.2 34.3003901,25.20078 53.9003911,23.80078 28,-2.1 70.699612,-17.5 72.099612,-45.5 1.4,-26.6 1.39882,-35 2.79883,-56 l 25.20117,-11.90039 -23.80078,-16.09961 c 0,-6.3 0.70117,-13.9996 0.70117,-19.5996 l 23.79883,-14 -22.40039,-14.70118 c 0,-4.2 0.70117,-14.70039 0.70117,-18.90039 4.2,-4.2 16.09922,-17.49883 21.69922,-27.29883 6.3,-10.5 13.2996,-28.00117 16.09961,-35.70117 5.6,-2.1 11.90039,-4.89922 18.90039,-7.69922 l 9.09961,7.69922 4.20117,-13.29883 c 15.4,-6.3 31.49922,-14.00039 46.19922,-22.40039 l 11.90039,9.80079 4.19922,-18.9004 c 11.89999,-7.7 22.40078,-15.3996 30.80078,-23.0996 8.4,-8.40001 14.70078,-17.5 20.30078,-28 l 11.19922,2.79882 -5.59961,-14 c 11.9,-25.199997 18.20039,-53.899216 22.40039,-81.199216 l 18.19922,-2.800781 -16.80078,-9.798828 c 2.8,-23.8 3.50156,-48.301563 2.10156,-72.101563 8.4,-5.6 16.09961,-11.199218 16.09961,-11.199218 l -18.20117,-11.199219 c -0.70001,-7 -2.09883,-14.701175 -2.79883,-21.701175 l 14,-4.19922 -16.80078,-11.90039 c -4.9,-25.9 -12.59922,-51.79922 -21.69922,-77.69921 0.10552,-0.0333 0.26676,-0.0906 0.375,-0.125 l -2.47657,-3.21876 -14.61328,2.27344 -11.6914,-9.74218 -6.22266,-1.57422 c 0.10638,0.15658 0.22325,0.33251 0.32813,0.48632 -11.9,13.3 -19.59961,32.20039 -26.59961,53.9004 l -22.40039,6.29882 16.80078,11.90039 c -7,22.4 -13.99961,46.199222 -23.09961,67.199222 l -20.30078,1.400391 14.69922,11.201172 c -8.4,16.8 -18.89922,31.5 -32.19922,42 -24.5,19.6 -94.5,-6.300781 -94.5,-6.300781 -4.200004,0 -6.300394,-14.69961 -8.400394,-37.09961 L 137.34766,-88.378906 91.148438,-100.2793 c -0.700001,-16.1 -2.100001,-32.89961 -3.5,-51.09961 l 27.298832,-16.80078 -28.699223,0.70117 c -0.7,-12.6 -2.1,-25.9 -3.5,-38.5 l 18.900393,-34.30078 -23.800784,-5.59961 c -2.1,-13.3 -4.2,-25.89961 -7,-37.09961 l 12.59961,-34.30078 -23.09961,0 c -9.1,-22.4 -19.599609,-35 -33.599609,-35 z"
           style="fill:#89a02c;stroke:#808b55;stroke-width:3.54330707;stroke-linejoin:round;stroke-miterlimit:4;stroke-dasharray:none;stroke-opacity:1"
           inkscape:connector-curvature="0" /></g><g
         id="g8304"
         transform="matrix(7,0,0,7,-740.82249,-963.67432)"
         style="fill:#ba4f37;fill-opacity:1;stroke:#9f4430;stroke-opacity:1"><path
           id="path8306"
           transform="matrix(0.14285714,0,0,0.14285714,116.57893,152.22558)"
           d="m 297.88867,-286.62891 c -11.25469,-0.0478 -24.6539,2.25078 -28.9414,12.05079 -7.7,16.8 10.5,46.1996 21,61.5996 -0.0858,0.0959 -0.16663,0.19849 -0.25196,0.29493 l 1.63477,1.60547 13.68554,11.73046 5.86524,1.95508 13.42187,-3.52539 c -0.0187,-0.0533 -0.0359,-0.10681 -0.0547,-0.16015 13.3,-4.2 48.29922,-16.80079 56.69922,-34.30079 4.9,-10.5 2.1,-26.59961 -7,-33.59961 -10.5,-8.4 -39.19922,0 -39.19922,0 0,0 -19.60118,-16.8 -32.20117,-17.5 -1.4875,-0.0875 -3.0504,-0.14355 -4.65821,-0.15039 z"
           style="fill:#ba4f37;fill-opacity:1;stroke:#9f4430;stroke-width:3.54330707;stroke-miterlimit:4;stroke-dasharray:none;stroke-opacity:1"
           inkscape:connector-curvature="0" /></g></g></g></svg>